<svg width="16" height="18" viewBox="0 0 16 18" fill="none" xmlns="http://www.w3.org/2000/svg">
<path fill-rule="evenodd" clip-rule="evenodd" d="M8.79296 0.333313V8.44679H7.19596V0.333313H8.79296ZM12.5465 4.63899C12.5453 4.63899 13.6632 3.47728 13.6644 3.47728C16.7785 6.71345 16.7785 12.0241 13.6644 15.2603C12.0674 16.8369 10.0712 17.6666 7.99506 17.6666C5.91896 17.6666 3.92272 16.8369 2.32572 15.2603C-0.788422 12.0241 -0.788422 6.71345 2.40557 3.47728C2.40523 3.47728 2.49572 3.57083 2.62535 3.70484C2.95251 4.04306 3.52896 4.63899 3.52347 4.63899C1.04812 7.21133 1.04812 11.4432 3.52347 14.0156C5.99881 16.5879 10.0712 16.5879 12.5465 14.0156C15.0218 11.4432 15.0218 7.21133 12.5465 4.63899Z" fill="#495867"/>
</svg>
