<svg width="22" height="16" viewBox="0 0 22 16" fill="none" xmlns="http://www.w3.org/2000/svg">
<path fill-rule="evenodd" clip-rule="evenodd" d="M21.6663 0.666687H0.333008V15.3334H21.6663V0.666687ZM1.36721 1.70525L20.557 1.77528V1.92493V14.1424V14.2921L1.36721 14.2207V1.70525ZM3.39968 7.88764C3.39968 9.2945 4.54482 10.4396 5.95168 10.4396C6.80197 10.4396 7.59282 10.0191 8.06825 9.31393C8.20996 9.10478 8.15396 8.82021 7.94482 8.67964C7.73682 8.53678 7.45111 8.59392 7.31054 8.80192C7.00539 9.2545 6.49682 9.52421 5.95168 9.52421C5.04882 9.52421 4.31397 8.7905 4.31397 7.88764C4.31397 6.98364 5.04882 6.24878 5.95168 6.24878C6.47739 6.24878 6.97568 6.50364 7.28196 6.93107C7.42825 7.13335 7.71396 7.1825 7.91968 7.03507C8.12425 6.88878 8.17111 6.60307 8.02368 6.39735C7.54596 5.73221 6.77111 5.33335 5.95168 5.33335C4.54482 5.33335 3.39968 6.47964 3.39968 7.88764ZM9.1899 11.2019C8.93733 11.2019 8.73276 10.9962 8.73276 10.7448V6.17335C8.73276 5.96878 8.86762 5.7905 9.06419 5.73335C9.26076 5.68078 9.4699 5.7585 9.57733 5.93107L11.095 8.35735L12.6116 5.93107C12.7202 5.75735 12.9293 5.67964 13.1259 5.73335C13.3213 5.7905 13.4562 5.96878 13.4562 6.17335V9.9825C13.4562 10.2339 13.2516 10.4396 12.999 10.4396C12.7476 10.4396 12.543 10.2339 12.543 9.9825V7.7665L11.4825 9.46249C11.3145 9.72992 10.8745 9.72992 10.7065 9.46249L9.64704 7.7665V10.7448C9.64704 10.9962 9.44247 11.2019 9.1899 11.2019ZM17.6443 11.0831C17.7323 11.1619 17.842 11.2019 17.9517 11.2019C18.0751 11.2019 18.1997 11.1505 18.29 11.0522C18.4591 10.8648 18.4466 10.5757 18.2591 10.4065L16.6683 8.95966C17.1277 8.66823 17.6466 8.15509 17.6466 7.31623C17.6466 6.04994 16.3517 5.71509 15.666 5.71509H14.5551C14.3026 5.71509 14.098 5.9208 14.098 6.17337V9.98251C14.098 10.2339 14.3026 10.4397 14.5551 10.4397C14.8077 10.4397 15.0123 10.2339 15.0123 9.98251V6.63051H15.666C15.6763 6.63051 16.7334 6.63851 16.7334 7.31623C16.7334 8.0872 15.788 8.38266 15.7314 8.40037L15.73 8.4008C15.5711 8.44766 15.4488 8.57566 15.4123 8.7368C15.3757 8.8968 15.4271 9.06709 15.5494 9.17794L17.6443 11.0831Z" fill="#495867"/>
</svg>
