<svg width="15" height="20" viewBox="0 0 15 20" fill="none" xmlns="http://www.w3.org/2000/svg">
<g clip-path="url(#clip0_35_1448)">
<path fill-rule="evenodd" clip-rule="evenodd" d="M1.59243 6.04818H13.5C13.5957 6.04382 13.6914 6.05256 13.7853 6.07422C13.9404 6.11317 14.0828 6.20116 14.1961 6.32813C14.3277 6.47224 14.4106 6.66476 14.43 6.87175C14.4336 6.95 14.4308 7.02848 14.4215 7.10612L13.4073 19.0934V19.1146V19.1602C13.4006 19.2096 13.3911 19.2586 13.3788 19.3066V19.3164C13.325 19.5055 13.221 19.6709 13.0812 19.7895C12.9414 19.9082 12.7727 19.9744 12.5985 19.9788H2.46967C2.40946 19.9755 2.34972 19.9652 2.29137 19.9479C2.23403 19.9284 2.17859 19.9022 2.12591 19.8698C2.00157 19.7882 1.89657 19.6732 1.82001 19.5348C1.74345 19.3963 1.69765 19.2387 1.68658 19.0755L0.688098 7.11426C0.676704 7.02481 0.673835 6.93422 0.67954 6.84408C0.699495 6.63995 0.78181 6.45037 0.912043 6.30859C1.03005 6.17771 1.17862 6.08843 1.33996 6.05143C1.42423 6.03463 1.50977 6.02754 1.59529 6.03027L1.59243 6.04818ZM0.805063 1.43229H5.29394V0.976562C5.29323 0.961925 5.29323 0.947254 5.29394 0.932617C5.30292 0.687309 5.39255 0.454864 5.54498 0.281576C5.70497 0.101363 5.92068 0.000218302 6.1455 0L8.90843 0H8.95122C9.17071 0.0125377 9.37755 0.120934 9.52891 0.302734C9.68027 0.484534 9.76454 0.725804 9.76427 0.976562V1.43229H14.3287H14.3844C14.5459 1.44737 14.6972 1.52872 14.8102 1.66128C14.9233 1.79384 14.9904 1.96864 14.9991 2.15332C14.9991 2.18262 14.9991 2.2054 14.9991 2.2347V3.83952C14.9991 3.95132 14.9602 4.05854 14.8909 4.1376C14.8217 4.21665 14.7277 4.26107 14.6297 4.26107H0.368585C0.271341 4.26108 0.178016 4.21733 0.108855 4.13933C0.0396938 4.06133 0.000274348 3.95535 -0.000852029 3.8444V2.20215C-0.00232016 2.18537 -0.00232016 2.16847 -0.000852029 2.15169C0.00892038 1.9803 0.0687442 1.81759 0.169065 1.68955C0.269385 1.56151 0.404416 1.47552 0.55259 1.44531C0.63627 1.43279 0.720734 1.42843 0.805063 1.43229ZM6.8102 10.0098C6.82742 9.81861 6.90615 9.64154 7.03117 9.51279C7.15619 9.38405 7.31862 9.31278 7.48702 9.31278C7.65543 9.31278 7.81785 9.38405 7.94287 9.51279C8.06789 9.64154 8.14663 9.81861 8.16385 10.0098V16.0319C8.14663 16.2231 8.06789 16.4001 7.94287 16.5289C7.81785 16.6576 7.65543 16.7289 7.48702 16.7289C7.31862 16.7289 7.15619 16.6576 7.03117 16.5289C6.90615 16.4001 6.82742 16.2231 6.8102 16.0319V10.0098ZM10.195 9.97721C10.2137 9.78212 10.2991 9.60331 10.4326 9.4796C10.5662 9.35588 10.7371 9.29725 10.9082 9.31641C10.9923 9.31555 11.0757 9.33368 11.1537 9.36975C11.2316 9.40583 11.3025 9.45914 11.3623 9.52661C11.4221 9.59408 11.4696 9.67438 11.5021 9.76289C11.5345 9.8514 11.5514 9.94636 11.5515 10.0423L11.2663 16.0645C11.2479 16.2597 11.1626 16.4388 11.029 16.5626C10.8954 16.6864 10.7243 16.7449 10.5531 16.7253C10.469 16.7261 10.3856 16.708 10.3076 16.6719C10.2297 16.6358 10.1588 16.5825 10.099 16.5151C10.0392 16.4476 9.99173 16.3673 9.95925 16.2788C9.92676 16.1903 9.90995 16.0953 9.90976 15.9993L10.195 9.97721ZM3.56514 10.0423C3.56514 9.94644 3.58178 9.85151 3.61411 9.76301C3.64644 9.67451 3.69381 9.5942 3.75349 9.52671C3.81317 9.45921 3.88397 9.40588 3.96182 9.36978C4.03966 9.33369 4.123 9.31555 4.20702 9.31641C4.3782 9.29725 4.54909 9.35588 4.68261 9.4796C4.81614 9.60331 4.90151 9.78212 4.92022 9.97721L5.2055 15.9993C5.20532 16.0953 5.1885 16.1903 5.15602 16.2788C5.12353 16.3673 5.07603 16.4476 5.01623 16.5151C4.95644 16.5825 4.88554 16.6358 4.80762 16.6719C4.72969 16.708 4.64628 16.7261 4.56219 16.7253C4.39094 16.7449 4.21985 16.6864 4.08624 16.5626C3.95263 16.4388 3.86734 16.2597 3.849 16.0645L3.56372 10.0423H3.56514Z" fill="#767676"/>
</g>
<defs>
<clipPath id="clip0_35_1448">
<rect width="15" height="20" fill="white"/>
</clipPath>
</defs>
</svg>
