<svg width="11" height="6" viewBox="0 0 11 6" fill="none" xmlns="http://www.w3.org/2000/svg">
<path d="M10.0077 0.831809C10.0062 0.608842 9.92063 0.395704 9.76998 0.239595C9.61933 0.0834851 9.41601 -0.00271388 9.20504 8.63597e-05C8.98502 0.000609178 8.77419 0.0933998 8.61885 0.258078L5.01233 4.02895L1.39872 0.258078C1.23988 0.0943738 1.0273 0.00192874 0.805437 8.63597e-05C0.594221 -0.00311686 0.390532 0.0829035 0.239574 0.239057C0.0886166 0.39521 0.00287683 0.608578 0.00138569 0.831809C-0.0026863 1.05088 0.0807885 1.26161 0.231318 1.41229L4.36867 5.7134C4.53424 5.89768 4.76454 6.00141 5.005 5.99999C5.24545 5.99857 5.47465 5.89213 5.63826 5.7059L9.77774 1.41229C9.92827 1.26161 10.0117 1.05088 10.0077 0.831809Z" fill="#313B44"/>
</svg>
