<svg width="10" height="6" viewBox="0 0 10 6" fill="none" xmlns="http://www.w3.org/2000/svg">
<path d="M9.99986 0.831809C9.99836 0.608842 9.91288 0.395704 9.76233 0.239595C9.61178 0.0834851 9.40859 -0.00271388 9.19775 8.63597e-05C8.97788 0.000609178 8.76718 0.0933998 8.61195 0.258078L5.0078 4.02895L1.39656 0.258078C1.23783 0.0943738 1.02538 0.00192874 0.803666 8.63597e-05C0.592588 -0.00311686 0.389032 0.0829035 0.238174 0.239057C0.0873156 0.39521 0.00163269 0.608578 0.000142097 0.831809C-0.00392723 1.05088 0.0794926 1.26161 0.229923 1.41229L4.36456 5.7134C4.53002 5.89768 4.76017 6.00141 5.00047 5.99999C5.24077 5.99857 5.46981 5.89213 5.63332 5.7059L9.77008 1.41229C9.92051 1.26161 10.0039 1.05088 9.99986 0.831809Z" fill="white"/>
</svg>
