<svg width="7" height="4" viewBox="0 0 7 4" fill="none" xmlns="http://www.w3.org/2000/svg">
<path d="M6.6708 0.554539C6.66981 0.405895 6.61278 0.263803 6.51235 0.15973C6.41191 0.0556567 6.27636 -0.00180925 6.13572 5.75731e-05C5.98903 0.000406119 5.84848 0.0622665 5.74493 0.172052L3.34058 2.68597L0.931502 0.172052C0.825612 0.0629159 0.683887 0.00128583 0.535982 5.75731e-05C0.395171 -0.0020779 0.259378 0.055269 0.15874 0.159371C0.0581012 0.263473 0.000941753 0.405719 -5.24521e-05 0.554539C-0.00276709 0.700584 0.0528827 0.841077 0.153235 0.941527L2.91147 3.80893C3.02185 3.93179 3.17539 4.00094 3.33569 3.99999C3.49599 3.99904 3.64879 3.92808 3.75786 3.80393L6.51752 0.941527C6.61787 0.841077 6.67352 0.700584 6.6708 0.554539Z" fill="#494E58"/>
</svg>
