<svg width="22" height="16" viewBox="0 0 22 16" fill="none" xmlns="http://www.w3.org/2000/svg">
<path fill-rule="evenodd" clip-rule="evenodd" d="M0.333008 0.666687H21.6663V15.3334H0.333008V0.666687ZM20.557 1.77528L1.36721 1.70525V14.2207L20.557 14.2921V14.1424V1.92493V1.77528Z" fill="#495867"/>
<path fill-rule="evenodd" clip-rule="evenodd" d="M7.86547 11.7782L7.86057 6.62401L9.93678 6.62275C9.49485 7.19529 8.99293 7.71602 8.98804 7.72234L8.90112 7.81081L9.50831 8.43644L9.59401 8.3505C9.60013 8.34418 10.0788 7.85379 10.5378 7.26607L10.5427 11.7757L7.86547 11.7782ZM8.83876 4.91647C8.80448 4.89624 8.70655 4.76227 8.68574 4.58912C8.6735 4.48168 8.69186 4.40206 8.73838 4.35403C8.82162 4.26809 8.94159 4.22132 9.07503 4.22132C9.11298 4.22132 9.15092 4.22511 9.18887 4.2327C9.30272 4.25418 9.41167 4.30474 9.50226 4.37931C9.68467 4.5373 9.99316 4.92911 10.3029 5.48017C9.78382 5.38285 9.29293 5.19452 8.83876 4.91647ZM11.5992 5.47891C11.9101 4.92532 12.2162 4.53352 12.3974 4.37679C12.5198 4.27442 12.674 4.2188 12.8295 4.2188C12.8625 4.2188 12.8944 4.22133 12.9286 4.22512C13.0168 4.24155 13.0964 4.28326 13.16 4.34772C13.22 4.40965 13.2237 4.50824 13.2139 4.58028C13.1931 4.75723 13.0939 4.8912 13.0609 4.91142C12.6079 5.18948 12.117 5.38033 11.5992 5.47891ZM12.3117 8.34543L12.3974 8.43517L13.0058 7.80701L12.9189 7.71854C12.914 7.71222 12.406 7.18643 11.9677 6.61894L14.1345 6.61642L14.1394 11.7719L11.4021 11.7744L11.3985 7.30271C11.8392 7.8563 12.2884 8.32394 12.3117 8.34543ZM7.00857 12.6667L15 12.6591L14.9914 5.72789L13.4073 5.73042C13.4404 5.71146 13.471 5.6925 13.5028 5.67355C13.7917 5.49281 14.0182 5.09847 14.0672 4.68897C14.1125 4.30853 14.0047 3.96349 13.766 3.72082C13.22 3.15333 12.3435 3.26582 11.8453 3.69428C11.5796 3.92304 11.2577 4.34645 10.9504 4.8697C10.6432 4.3553 10.3138 3.92431 10.0494 3.69554C9.55486 3.26961 8.6759 3.16218 8.13114 3.72587C7.8912 3.97107 7.78592 4.31612 7.83244 4.69529C7.88141 5.10479 8.10788 5.49913 8.39924 5.67987L8.49227 5.73548L7 5.738L7.00857 12.6667Z" fill="#495867"/>
</svg>
