<svg width="16" height="20" viewBox="0 0 16 20" fill="none" xmlns="http://www.w3.org/2000/svg">
<path fill-rule="evenodd" clip-rule="evenodd" d="M7.91667 0C3.545 0 0 3.625 0 8.095C0 14.285 7.91667 20 7.91667 20C7.91667 20 15.8333 14.285 15.8333 8.095C15.8333 3.625 12.2883 0 7.91667 0ZM7.9174 1.33329C11.5474 1.33329 14.5007 4.36662 14.5007 8.09495C14.5007 12.4533 9.8024 16.7566 7.91073 18.31C5.53907 16.3766 1.33407 12.115 1.33407 8.09495C1.33407 4.36662 4.2874 1.33329 7.9174 1.33329ZM4.19207 7.6194C4.19207 5.5144 5.8604 3.8094 7.91707 3.8094C9.97373 3.8094 11.6421 5.5144 11.6421 7.6194C11.6421 9.72274 9.97373 11.4277 7.91707 11.4277C5.8604 11.4277 4.19207 9.72274 4.19207 7.6194ZM10.3103 7.61929C10.3103 6.25263 9.23533 5.14262 7.917 5.14262C6.59867 5.14262 5.52367 6.25263 5.52367 7.61929C5.52367 8.98429 6.59867 10.0943 7.917 10.0943C9.23533 10.0943 10.3103 8.98429 10.3103 7.61929Z" fill="#FF6200"/>
</svg>
