<svg width="16" height="16" viewBox="0 0 16 16" fill="none" xmlns="http://www.w3.org/2000/svg">
<path fill-rule="evenodd" clip-rule="evenodd" d="M1.91705 0H15.3337V16H1.91705L1.91679 13.2405L0.666992 13.2407V12.2078L1.91681 12.208V8.70468L0.666992 8.70508V7.67254L1.91681 7.67259V3.98045L0.666992 3.98068V2.9478L1.91679 2.94798L1.91705 0ZM14.2618 14.9668V1.03183H2.98831L2.98791 2.94797L4.08241 2.94779V3.98067L2.98828 3.98043V7.67259L4.08241 7.67254V8.70508L2.98828 8.70467V12.208L4.08241 12.2078V13.2407L2.98791 13.2405L2.98831 14.9668H14.2618ZM9.0158 4.38542L5.14713 7.7122L5.82375 8.44859L5.82377 11.4644H12.2082L12.2078 8.44892L12.8845 7.7122L9.0158 4.38542ZM9.01517 5.56655L6.73834 7.52547L6.7387 10.5819H11.2916L11.2927 7.52547L9.01517 5.56655Z" fill="#495867"/>
</svg>
