<svg width="19" height="15" viewBox="0 0 19 15" fill="none" xmlns="http://www.w3.org/2000/svg">
<path d="M12.6215 11.0102V11.8159H3.89386C3.66368 11.8159 3.4335 11.8926 3.26087 12.0269L1.20844 13.6189V1.20844H12.6215V4.87212L13.8299 3.51023V1.03581C13.8299 0.460358 13.3504 0 12.7941 0H1.03581C0.460358 0 0 0.460358 0 1.03581V13.945C0 14.3478 0.210997 14.6931 0.575448 14.8849C0.7289 14.9616 0.882353 15 1.03581 15C1.2468 15 1.47698 14.9233 1.6688 14.789L3.89386 13.0243H12.7941C13.3696 13.0243 13.8299 12.5448 13.8299 11.9885V9.85934L13.0627 10.7225C12.9476 10.8376 12.7941 10.9527 12.6215 11.0102Z" fill="#495867"/>
<path d="M3.52983 4.12398H10.2817C10.627 4.12398 10.8956 3.85544 10.8956 3.51017C10.8956 3.18409 10.627 2.89636 10.2817 2.89636H3.52983C3.18456 2.89636 2.91602 3.18409 2.91602 3.51017C2.9352 3.85544 3.20374 4.12398 3.52983 4.12398Z" fill="#495867"/>
<path d="M10.8956 6.42594C10.8956 6.09986 10.627 5.81213 10.2817 5.81213H3.52983C3.18456 5.81213 2.91602 6.09986 2.91602 6.42594C2.91602 6.77121 3.18456 7.03975 3.52983 7.03975H10.2817C10.627 7.03975 10.8956 6.77121 10.8956 6.42594Z" fill="#495867"/>
<path d="M2.93457 9.34146C2.93457 9.68672 3.20311 9.95527 3.54838 9.95527H9.37958L9.59058 8.74683H3.5292C3.20311 8.74683 2.93457 9.01537 2.93457 9.34146Z" fill="#495867"/>
<path d="M15.1793 3.45626L11.582 7.47021L13.2962 9.00643L16.8935 4.99248L15.1793 3.45626Z" fill="#495867"/>
<path d="M18.107 3.12649L16.9178 2.05232C16.7835 1.91805 16.5533 1.93723 16.4382 2.0715L15.7285 2.87713L17.4357 4.41165L18.1454 3.60603C18.2605 3.47176 18.2413 3.24158 18.107 3.12649Z" fill="#495867"/>
<path d="M10.7221 10.5882L12.1799 10.1662C12.2375 10.1471 12.295 10.1087 12.3334 10.0703L12.7554 9.60997L11.0482 8.07544L10.6262 8.5358C10.5878 8.59334 10.5495 8.65089 10.5495 8.70843L10.3001 10.2046C10.2617 10.454 10.4919 10.6458 10.7221 10.5882Z" fill="#495867"/>
</svg>
