<svg width="20" height="17" viewBox="0 0 20 17" fill="none" xmlns="http://www.w3.org/2000/svg">
<path d="M7.2 9.81176L7.41176 10.0941M7.2 9.81176L14.2588 14.8235C14.1882 14.6824 13.9765 14.6824 13.9059 14.6824H8.75294C6.91765 14.6824 6.35294 12.7765 6.28235 11.7882L6.23954 11.4029H6.49108M7.2 9.81176L7.38814 9.64714L7.39435 9.65423L7.4 9.66176L7.53676 9.84412M7.2 9.81176C7.38814 9.64714 7.38801 9.64699 7.38788 9.64683L7.3876 9.64651L7.387 9.64584L7.38566 9.64434L7.38239 9.64074L7.37343 9.63128C7.36636 9.624 7.35707 9.61482 7.34542 9.60403C7.3221 9.58245 7.28935 9.55448 7.24594 9.52242C7.15898 9.45821 7.02995 9.3781 6.84923 9.29995C6.48731 9.14344 5.92345 8.99706 5.08235 8.99706C4.27063 8.99706 3.70446 9.16336 3.33415 9.33877C3.14952 9.42623 3.01517 9.5152 2.9245 9.58514C2.87921 9.62008 2.84491 9.65021 2.82075 9.67292C2.80867 9.68428 2.79912 9.69379 2.79201 9.70112L2.78485 9.70866M7.2 9.81176C7.2 9.81176 6.70588 9.24706 5.08235 9.24706C3.52941 9.24706 2.96471 9.88235 2.96471 9.88235M7.2 9.81176L2.96471 9.88235M7.41176 10.0941H10.3765M7.41176 10.0941L7.61176 9.94412L7.53676 9.84412M7.41176 10.0941V9.84412H7.53676M10.3765 10.0941C10.3765 10.0941 10.5882 10.0941 10.7294 10.2353C10.8 10.3059 10.8706 10.4471 10.8706 10.6588C10.8706 10.8 10.8 10.9412 10.7294 11.0118C10.5882 11.1529 10.3765 11.1529 10.3059 11.1529H6.4633L6.49108 11.4029M10.3765 10.0941C10.3765 9.84412 10.3766 9.84412 10.3766 9.84412H10.3768L10.3772 9.84412L10.3779 9.84412L10.3797 9.84413L10.3843 9.84421L10.3972 9.84465C10.4074 9.84511 10.4207 9.84597 10.4366 9.84756C10.4683 9.85072 10.5114 9.85691 10.5606 9.86923C10.6563 9.89314 10.7921 9.94446 10.9062 10.0585C11.032 10.1843 11.1206 10.3935 11.1206 10.6588C11.1206 10.8706 11.0205 11.0742 10.9062 11.1885C10.6903 11.4044 10.387 11.4032 10.3124 11.403C10.31 11.4029 10.3078 11.4029 10.3059 11.4029H6.49108M10.3765 10.0941L10.3765 9.84412H7.53676M6.49108 11.4029L6.53082 11.7606L6.53191 11.7704L6.53172 11.7704C6.56504 12.237 6.71611 12.9171 7.06718 13.4723C7.41205 14.0176 7.94018 14.4324 8.75294 14.4324H8.76453H8.77615H8.7878H8.79947H8.81116H8.82288H8.83463H8.8464H8.85819H8.87001H8.88185H8.89372H8.90561H8.91752H8.92946H8.94142H8.9534H8.9654H8.97743H8.98948H9.00155H9.01365H9.02576H9.0379H9.05006H9.06224H9.07444H9.08666H9.0989H9.11116H9.12344H9.13575H9.14807H9.16041H9.17277H9.18516H9.19756H9.20998H9.22241H9.23487H9.24735H9.25984H9.27235H9.28488H9.29743H9.30999H9.32257H9.33517H9.34779H9.36042H9.37307H9.38573H9.39841H9.41111H9.42383H9.43655H9.4493H9.46206H9.47483H9.48762H9.50043H9.51324H9.52608H9.53892H9.55179H9.56466H9.57755H9.59045H9.60336H9.61629H9.62923H9.64219H9.65515H9.66813H9.68112H9.69412H9.70714H9.72016H9.7332H9.74625H9.7593H9.77237H9.78545H9.79854H9.81164H9.82475H9.83787H9.851H9.86414H9.87729H9.89045H9.90362H9.91679H9.92998H9.94317H9.95637H9.96958H9.98279H9.99602H10.0093H10.0225H10.0357H10.049H10.0622H10.0755H10.0888H10.1021H10.1153H10.1286H10.1419H10.1552H10.1685H10.1818H10.1952H10.2085H10.2218H10.2351H10.2485H10.2618H10.2751H10.2885H10.3018H10.3152H10.3285H10.3419H10.3553H10.3686H10.382H10.3954H10.4087H10.4221H10.4355H10.4488H10.4622H10.4756H10.4889H10.5023H10.5157H10.5291H10.5425H10.5558H10.5692H10.5826H10.5959H10.6093H10.6227H10.6361H10.6494H10.6628H10.6762H10.6895H10.7029H10.7162H10.7296H10.743H10.7563H10.7696H10.783H10.7963H10.8097H10.823H10.8363H10.8497H10.863H10.8763H10.8896H10.9029H10.9162H10.9295H10.9428H10.9561H10.9693H10.9826H10.9959H11.0091H11.0224H11.0356H11.0489H11.0621H11.0753H11.0885H11.1017H11.1149H11.1281H11.1413H11.1545H11.1676H11.1808H11.1939H11.2071H11.2202H11.2333H11.2464H11.2595H11.2726H11.2857H11.2988H11.3118H11.3249H11.3379H11.3509H11.3639H11.3769H11.3899H11.4029H11.4158H11.4288H11.4417H11.4546H11.4676H11.4805H11.4933H11.5062H11.5191H11.5319H11.5447H11.5576H11.5704H11.5831H11.5959H11.6087H11.6214H11.6341H11.6468H11.6595H11.6722H11.6849H11.6975H11.7101H11.7227H11.7353H11.7479H11.7605H11.773H11.7855H11.798H11.8105H11.823H11.8355H11.8479H11.8603H11.8727H11.8851H11.8974H11.9098H11.9221H11.9344H11.9467H11.9589H11.9711H11.9834H11.9956H12.0077H12.0199H12.032H12.0441H12.0562H12.0683H12.0803H12.0923H12.1043H12.1163H12.1283H12.1402H12.1521H12.164H12.1758H12.1877H12.1995H12.2113H12.223H12.2348H12.2465H12.2582H12.2698H12.2815H12.2931H12.3047H12.3162H12.3278H12.3393H12.3507H12.3622H12.3736H12.385H12.3964H12.4077H12.4191H12.4304H12.4416H12.4529H12.4641H12.4752H12.4864H12.4975H12.5086H12.5197H12.5307H12.5417H12.5527H12.5636H12.5745H12.5854H12.5963H12.6071H12.6179H12.6286H12.6394H12.6501H12.6607H12.6713H12.6819H12.6925H12.7031H12.7136H12.724H12.7345H12.7449H12.7552H12.7656H12.7759H12.7862H12.7964H12.8066H12.8168H12.8269H12.837H12.847H12.8571H12.8671H12.877H12.8869H12.8968H12.9067H12.9165H12.9263H12.936H12.9457H12.9554H12.965H12.9746H12.9841H12.9937H13.0031H13.0126H13.022H13.0313H13.0407H13.0499H13.0592H13.0684H13.0776H13.0867H13.0958H13.1048H13.1138H13.1228H13.1317H13.1406H13.1494H13.1582H13.167H13.1757H13.1844H13.193H13.2016H13.2102H13.2187H13.2272H13.2356H13.244H13.2523H13.2606H13.2688H13.277H13.2852H13.2933H13.3014H13.3094H13.3174H13.3253H13.3332H13.3411H13.3489H13.3567H13.3644H13.372H13.3797H13.3872H13.3948H13.4022H13.4097H13.4171H13.4244H13.4317H13.4389H13.4461H13.4533H13.4604H13.4674H13.4744H13.4814H13.4883H13.4951H13.5019H13.5087H13.5154H13.5221H13.5287H13.5352H13.5417H13.5482H13.5546H13.5609H13.5672H13.5735H13.5797H13.5858H13.5919H13.598H13.604H13.6099H13.6158H13.6216H13.6274H13.6331H13.6388H13.6444H13.65H13.6555H13.661H13.6664H13.6717H13.677H13.6823H13.6874H13.6926H13.6976H13.7027H13.7076H13.7125H13.7174H13.7222H13.7269H13.7316H13.7362H13.7408H13.7453H13.7497H13.7541H13.7584H13.7627H13.7669H13.7711H13.7752H13.7792H13.7832H13.7871H13.791H13.7948H13.7986H13.8022H13.8059H13.8094H13.8129H13.8164H13.8198H13.8231H13.8263H13.8295H13.8327H13.8357H13.8388H13.8417H13.8446H13.8474H13.8502H13.8529H13.8555H13.8581H13.8606H13.863H13.8654H13.8677H13.87H13.8722H13.8743H13.8764H13.8784H13.8803H13.8822H13.884H13.8857H13.8874H13.889H13.8905H13.892H13.8934H13.8947H13.896H13.8972H13.8983H13.8994H13.9004H13.9013H13.9022H13.9029H13.9037H13.9043H13.9049H13.9054H13.9059L13.9089 14.4323C13.9463 14.4323 14.0422 14.4323 14.143 14.4575C14.2351 14.4805 14.3752 14.5359 14.4617 14.6747C14.5735 14.8024 14.65 15.0005 14.65 15.2471C14.65 15.5501 14.4577 15.7239 14.2946 15.8171C14.2144 15.8629 14.1326 15.8951 14.0699 15.9183C14.0461 15.9271 14.027 15.934 14.0113 15.9397C13.9777 15.9519 13.9601 15.9583 13.9471 15.9648L13.8943 15.9912H13.8353H6.63529H6.60028L6.56661 15.9816L2.64734 14.8618H2.32941H2.07941V14.6118V10.0941V9.84412H2.32941H2.64939M2.78485 9.70866L2.64939 9.84412M2.78485 9.70866L2.78793 9.70558L2.96471 9.88235M2.78485 9.70866L2.78315 9.71044L2.78006 9.71381L2.77885 9.71515L2.77832 9.71573L2.77808 9.71601C2.77797 9.71614 2.77785 9.71626 2.96471 9.88235M2.64939 9.84412L2.57616 9.91734L2.75294 10.0941M2.64939 9.84412H2.75294V10.0941M2.75294 10.0941L2.96471 9.88235M2.75294 10.0941H2.57941H2.32941V10.3441V14.3618V14.6118H2.57941H2.68235L2.96471 9.88235M18.25 13.4809L18.2514 13.7324H18H13.9765H13.9059V13.4824L13.9058 13.7324H13.9057H13.9056H13.9053H13.905H13.9046H13.9042H13.9036H13.903H13.9024H13.9016H13.9008H13.8999H13.899H13.898H13.8969H13.8958H13.8945H13.8933H13.8919H13.8905H13.889H13.8875H13.8858H13.8842H13.8824H13.8806H13.8787H13.8767H13.8747H13.8726H13.8705H13.8683H13.866H13.8637H13.8613H13.8588H13.8563H13.8537H13.851H13.8483H13.8455H13.8426H13.8397H13.8367H13.8337H13.8306H13.8274H13.8242H13.8209H13.8175H13.8141H13.8107H13.8071H13.8035H13.7999H13.7961H13.7924H13.7885H13.7846H13.7807H13.7766H13.7726H13.7684H13.7642H13.76H13.7557H13.7513H13.7469H13.7424H13.7378H13.7332H13.7285H13.7238H13.719H13.7142H13.7093H13.7044H13.6994H13.6943H13.6892H13.684H13.6788H13.6735H13.6681H13.6627H13.6573H13.6518H13.6462H13.6406H13.6349H13.6292H13.6234H13.6176H13.6117H13.6058H13.5998H13.5937H13.5876H13.5815H13.5753H13.569H13.5627H13.5563H13.5499H13.5435H13.537H13.5304H13.5238H13.5171H13.5104H13.5036H13.4968H13.4899H13.483H13.476H13.469H13.4619H13.4548H13.4477H13.4405H13.4332H13.4259H13.4185H13.4111H13.4037H13.3962H13.3886H13.381H13.3734H13.3657H13.3579H13.3501H13.3423H13.3344H13.3265H13.3185H13.3105H13.3025H13.2944H13.2862H13.278H13.2698H13.2615H13.2532H13.2448H13.2364H13.2279H13.2194H13.2109H13.2023H13.1936H13.185H13.1762H13.1675H13.1587H13.1498H13.141H13.132H13.1231H13.114H13.105H13.0959H13.0868H13.0776H13.0684H13.0591H13.0498H13.0405H13.0311H13.0217H13.0122H13.0027H12.9932H12.9836H12.974H12.9644H12.9547H12.945H12.9352H12.9254H12.9156H12.9057H12.8958H12.8859H12.8759H12.8659H12.8558H12.8457H12.8356H12.8254H12.8152H12.805H12.7947H12.7844H12.7741H12.7637H12.7533H12.7428H12.7324H12.7218H12.7113H12.7007H12.6901H12.6795H12.6688H12.6581H12.6473H12.6366H12.6258H12.6149H12.604H12.5931H12.5822H12.5712H12.5602H12.5492H12.5382H12.5271H12.516H12.5048H12.4936H12.4824H12.4712H12.4599H12.4486H12.4373H12.4259H12.4146H12.4031H12.3917H12.3802H12.3687H12.3572H12.3457H12.3341H12.3225H12.3108H12.2992H12.2875H12.2758H12.264H12.2523H12.2405H12.2287H12.2168H12.205H12.1931H12.1812H12.1692H12.1573H12.1453H12.1332H12.1212H12.1091H12.0971H12.0849H12.0728H12.0607H12.0485H12.0363H12.0241H12.0118H11.9995H11.9873H11.9749H11.9626H11.9503H11.9379H11.9255H11.9131H11.9006H11.8882H11.8757H11.8632H11.8507H11.8381H11.8256H11.813H11.8004H11.7878H11.7751H11.7625H11.7498H11.7371H11.7244H11.7117H11.6989H11.6862H11.6734H11.6606H11.6478H11.635H11.6221H11.6093H11.5964H11.5835H11.5706H11.5577H11.5447H11.5318H11.5188H11.5058H11.4928H11.4798H11.4668H11.4537H11.4407H11.4276H11.4145H11.4014H11.3883H11.3752H11.362H11.3489H11.3357H11.3225H11.3094H11.2962H11.283H11.2697H11.2565H11.2433H11.23H11.2167H11.2035H11.1902H11.1769H11.1636H11.1502H11.1369H11.1236H11.1102H11.0969H11.0835H11.0701H11.0568H11.0434H11.03H11.0166H11.0032H10.9897H10.9763H10.9629H10.9494H10.936H10.9225H10.9091H10.8956H10.8821H10.8687H10.8552H10.8417H10.8282H10.8147H10.8012H10.7877H10.7741H10.7606H10.7471H10.7336H10.72H10.7065H10.693H10.6794H10.6659H10.6523H10.6388H10.6252H10.6116H10.5981H10.5845H10.571H10.5574H10.5438H10.5303H10.5167H10.5031H10.4895H10.476H10.4624H10.4488H10.4353H10.4217H10.4081H10.3945H10.381H10.3674H10.3538H10.3403H10.3267H10.3131H10.2996H10.286H10.2725H10.2589H10.2454H10.2318H10.2183H10.2047H10.1912H10.1777H10.1641H10.1506H10.1371H10.1235H10.11H10.0965H10.083H10.0695H10.056H10.0425H10.029H10.0156H10.0021H9.98863H9.97517H9.96172H9.94827H9.93483H9.9214H9.90797H9.89456H9.88115H9.86774H9.85435H9.84096H9.82759H9.81422H9.80086H9.78751H9.77416H9.76083H9.74751H9.73419H9.72089H9.7076H9.69431H9.68104H9.66778H9.65453H9.64129H9.62806H9.61484H9.60163H9.58844H9.57526H9.56209H9.54893H9.53578H9.52265H9.50953H9.49642H9.48333H9.47025H9.45718H9.44413H9.43109H9.41807H9.40506H9.39206H9.37908H9.36611H9.35316H9.34023H9.32731H9.3144H9.30151H9.28864H9.27579H9.26295H9.25012H9.23732H9.22453H9.21175H9.199H9.18626H9.17354H9.16084H9.14816H9.13549H9.12284H9.11022H9.09761H9.08502H9.07244H9.05989H9.04736H9.03485H9.02235H9.00988H8.99743H8.985H8.97259H8.9602H8.94783H8.93548H8.92315H8.91085H8.89857H8.88631H8.87407H8.86185H8.84966H8.83749H8.82534H8.81321H8.80111H8.78903H8.77698H8.76495H8.75294C8.31121 13.7324 7.99652 13.5282 7.78125 13.2591C7.5735 12.9994 7.45661 12.6787 7.38315 12.4216L7.2921 12.1029H7.62353H10.2353C10.4467 12.1029 10.9898 12.0977 11.4066 11.7457C11.5858 11.5651 11.8264 11.2656 11.8911 10.6464C11.8881 10.0543 11.6662 9.75921 11.4667 9.49377C11.4639 9.49004 11.4611 9.4863 11.4583 9.48258C11.0422 9.07795 10.4427 9.07353 10.3765 9.07353H7.90588H7.80233L7.7291 9.00031C7.49637 8.76757 7.06166 8.50415 6.19245 8.36765L18.25 13.4809ZM18.25 13.4809L18 13.4824L18.25 13.4809ZM17.9294 1.2L18.1794 1.19856L18.178 0.95H17.9294V1.2ZM17.9294 1.2H14.5412M17.9294 1.2H14.5412M14.5412 1.2V0.95H14.2912V1.2H14.5412ZM14.5412 1.2V6L11.8588 4.8M14.5412 1.2H5.78823M5.78823 1.2H5.53823V0.95H5.78823V1.2ZM5.78823 1.2H9.17647M9.17647 1.2V6L11.8588 4.8M9.17647 1.2V0.95H9.42647V1.2H9.17647ZM11.8588 4.8L11.7567 4.57179L11.8588 4.52612L11.9609 4.57179L11.8588 4.8ZM2.07941 15.8118V16.6912H0.25V15.9206H1.12941H1.37941V15.6706V9.03529V8.78529H1.12941H0.25V8.08529H2.07941V8.82353V9.32353L2.47941 9.02353C2.72888 8.83642 3.18039 8.57361 3.97387 8.43824H4.02353H4.08255L4.13533 8.41184C4.18967 8.38467 4.21861 8.37682 4.2411 8.37307C4.26978 8.36829 4.30096 8.36765 4.37647 8.36765H4.37688H4.37729H4.3777H4.37811H4.37852H4.37892H4.37933H4.37973H4.38013H4.38053H4.38092H4.38132H4.38171H4.3821H4.3825H4.38289H4.38327H4.38366H4.38404H4.38443H4.38481H4.38519H4.38557H4.38595H4.38632H4.3867H4.38707H4.38744H4.38781H4.38818H4.38855H4.38891H4.38928H4.38964H4.39H4.39036H4.39072H4.39108H4.39143H4.39179H4.39214H4.39249H4.39285H4.39319H4.39354H4.39389H4.39423H4.39458H4.39492H4.39526H4.3956H4.39594H4.39628H4.39661H4.39695H4.39728H4.39762H4.39795H4.39828H4.39861H4.39893H4.39926H4.39958H4.39991H4.40023H4.40055H4.40087H4.40119H4.40151H4.40182H4.40214H4.40245H4.40277H4.40308H4.40339H4.4037H4.40401H4.40432H4.40462H4.40493H4.40523H4.40553H4.40584H4.40614H4.40644H4.40673H4.40703H4.40733H4.40762H4.40792H4.40821H4.4085H4.40879H4.40908H4.40937H4.40966H4.40995H4.41023H4.41052H4.4108H4.41109H4.41137H4.41165H4.41193H4.41221H4.41249H4.41277H4.41304H4.41332H4.41359H4.41387H4.41414H4.41441H4.41468H4.41495H4.41522H4.41549H4.41576H4.41602H4.41629H4.41655H4.41682H4.41708H4.41734H4.4176H4.41786H4.41812H4.41838H4.41864H4.4189H4.41915H4.41941H4.41966H4.41992H4.42017H4.42042H4.42068H4.42093H4.42118H4.42143H4.42168H4.42192H4.42217H4.42242H4.42266H4.42291H4.42315H4.4234H4.42364H4.42388H4.42413H4.42437H4.42461H4.42485H4.42509H4.42533H4.42556H4.4258H4.42604H4.42627H4.42651H4.42675H4.42698H4.42721H4.42745H4.42768H4.42791H4.42814H4.42837H4.4286H4.42883H4.42906H4.42929H4.42952H4.42975H4.42998H4.4302H4.43043H4.43065H4.43088H4.4311H4.43133H4.43155H4.43178H4.432H4.43222H4.43244H4.43266H4.43289H4.43311H4.43333H4.43355H4.43377H4.43399H4.4342H4.43442H4.43464H4.43486H4.43508H4.43529H4.43551H4.43573H4.43594H4.43616H4.43637H4.43659H4.4368H4.43702H4.43723H4.43744H4.43766H4.43787H4.43808H4.43829H4.43851H4.43872H4.43893H4.43914H4.43935H4.43956H4.43977H4.43999H4.4402H4.44041H4.44062H4.44083H4.44104H4.44124H4.44145H4.44166H4.44187H4.44208H4.44229H4.4425H4.44271H4.44291H4.44312H4.44333H4.44354H4.44375H4.44395H4.44416H4.44437H4.44457H4.44478H4.44499H4.4452H4.4454H4.44561H4.44582H4.44602H4.44623H4.44644H4.44664H4.44685H4.44706H4.44727H4.44747H4.44768H4.44789H4.44809H4.4483H4.44851H4.44871H4.44892H4.44913H4.44933H4.44954H4.44975H4.44996H4.45016H4.45037H4.45058H4.45079H4.45099H4.4512H4.45141H4.45162H4.45183H4.45204H4.45224H4.45245H4.45266H4.45287H4.45308H4.45329H4.4535H4.45371H4.45392H4.45413H4.45434H4.45455H4.45476H4.45497H4.45519H4.4554H4.45561H4.45582H4.45603H4.45625H4.45646H4.45667H4.45689H4.4571H4.45731H4.45753H4.45774H4.45796H4.45818H4.45839H4.45861H4.45882H4.45904H4.45926H4.45948H4.45969H4.45991H4.46013H4.46035H4.46057H4.46079H4.46101H4.46123H4.46145H4.46167H4.46189H4.46212H4.46234H4.46256H4.46279H4.46301H4.46324H4.46346H4.46369H4.46391H4.46414H4.46437H4.4646H4.46482H4.46505H4.46528H4.46551H4.46574H4.46597H4.46621H4.46644H4.46667H4.4669H4.46714H4.46737H4.46761H4.46784H4.46808H4.46831H4.46855H4.46879H4.46903H4.46927H4.46951H4.46975H4.46999H4.47023H4.47047H4.47072H4.47096H4.47121H4.47145H4.4717H4.47194H4.47219H4.47244H4.47269H4.47294H4.47319H4.47344H4.47369H4.47394H4.4742H4.47445H4.47471H4.47496H4.47522H4.47548H4.47573H4.47599H4.47625H4.47651H4.47678H4.47704H4.4773H4.47756H4.47783H4.47809H4.47836H4.47863H4.4789H4.47917H4.47944H4.47971H4.47998H4.48025H4.48052H4.4808H4.48107H4.48135H4.48163H4.48191H4.48219H4.48247H4.48275H4.48303H4.48331H4.4836H4.48388H4.48417H4.48445H4.48474H4.48503H4.48532H4.48561H4.48591H4.4862H4.48649H4.48679H4.48708H4.48738H4.48768H4.48798H4.48828H4.48858H4.48889H4.48919H4.48949H4.4898H4.49011H4.49042H4.49073H4.49104H4.49135H4.49166H4.49198H4.49229H4.49261H4.49293H4.49325H4.49357H4.49389H4.49421H4.49453H4.49486H4.49518H4.49551H4.49584H4.49617H4.4965H4.49683H4.49717H4.4975H4.49784H4.49818H4.49851H4.49885H4.4992H4.49954H4.49988H4.50023H4.50057H4.50092H4.50127H4.50162H4.50197H4.50233H4.50268H4.50304H4.5034H4.50375H4.50411H4.50448H4.50484H4.5052H4.50557H4.50594H4.50631H4.50668H4.50705H4.50742H4.50779H4.50817H4.50855H4.50893H4.50931H4.50969H4.51007H4.51046H4.51084H4.51123H4.51162H4.51201H4.5124H4.5128H4.51319H4.51359H4.51399H4.51439H4.51479H4.51519H4.5156H4.516H4.51641H4.51682H4.51723H4.51765H4.76765V8.11765V0.25H18.9488L18.8806 14.4324H15.4588H15.0543L15.2352 14.7942C15.2495 14.8226 15.2636 14.8736 15.2715 14.9678C15.2792 15.0612 15.2794 15.1732 15.2794 15.3176C15.2794 15.7912 15.0623 16.1105 14.7777 16.3277C14.4907 16.5468 14.1377 16.6576 13.8897 16.6912H6.49412H6.38796L2.46868 15.5714L2.43501 15.5618H2.4H2.32941H2.07941V15.8118ZM10.3765 0.95H10.1265V1.2V4.23529V4.63124L10.484 4.46101L11.8613 3.80514L13.3083 4.46289L13.6618 4.62354V4.23529V1.2V0.95H13.4118H10.3765ZM5.53823 8.04706V8.15061L5.61146 8.22383L5.78823 8.04706H5.53823Z" fill="#495867" stroke="#495867" stroke-width="0.5"/>
</svg>
