<svg width="14" height="18" viewBox="0 0 14 18" fill="none" xmlns="http://www.w3.org/2000/svg">
<path fill-rule="evenodd" clip-rule="evenodd" d="M6.99967 0.333313C8.20587 0.333313 9.23579 0.813395 10.0812 1.76822C10.8529 2.63989 11.2723 3.62085 11.3368 4.70692L11.3456 5.00572L11.3448 6.96412L13.5356 6.96472L13.6663 7.09604V17.5353L13.5356 17.6666H0.333008V17.5353V7.09604V6.96472L2.65327 6.96412L2.65374 5.00572C2.65374 4.01109 2.94134 3.10129 3.51474 2.27937L3.71646 2.00865L3.9182 1.76822C4.76356 0.813395 5.79348 0.333313 6.99967 0.333313ZM6.99966 1.23786C6.04487 1.23786 5.25702 1.6239 4.62637 2.402C4.05353 3.10878 3.73954 3.88123 3.68247 4.72267L3.67296 5.00571L3.67286 6.96411H10.3252L10.3264 5.00571C10.3264 4.1489 10.0697 3.36144 9.55432 2.64003L9.37295 2.402C8.74231 1.6239 7.95445 1.23786 6.99966 1.23786ZM1.37492 7.98705H12.6233V16.6424H1.37492V7.98705ZM7.00232 10.0666L7.20983 10.0796C7.48295 10.1115 7.72771 10.2073 7.94192 10.3668C8.20893 10.5657 8.39489 10.8306 8.49914 11.1623C8.53597 11.2954 8.55622 11.4282 8.55974 11.5605C8.56441 11.7356 8.53978 11.9093 8.48606 12.0809C8.40757 12.3316 8.27805 12.5502 8.12484 12.6778L8.0303 12.7429V13.7652C8.0303 13.864 8.0262 13.9627 8.018 14.0614C8.00846 14.1764 7.97468 14.283 7.92176 14.3708C7.83203 14.551 7.70478 14.6924 7.54146 14.7926C7.42009 14.8671 7.29673 14.9142 7.1721 14.9332L7.04706 14.9426H6.9997C6.78421 14.9426 6.58874 14.8833 6.41677 14.7652C6.24577 14.6477 6.12246 14.4964 6.04686 14.306C6.023 14.2342 6.00692 14.1653 5.99885 14.0995L5.99279 14.003L6.04187 12.8454C5.78503 12.6391 5.60446 12.3758 5.50187 12.0583C5.39771 11.7358 5.40651 11.4224 5.52724 11.1283C5.64643 10.8034 5.83945 10.5408 6.10485 10.3431C6.32007 10.1828 6.55656 10.0916 6.81173 10.0705L7.00232 10.0666ZM6.84051 11.0303C6.88944 11.0232 6.94249 11.0197 6.99964 11.0197C7.09017 11.0197 7.18597 11.0429 7.28776 11.0906C7.38185 11.1347 7.45221 11.1992 7.50186 11.2864C7.56267 11.3653 7.59274 11.4317 7.60481 11.5044C7.61822 11.5852 7.61822 11.6657 7.60481 11.7465C7.59154 11.8394 7.56011 11.9183 7.50964 11.988C7.45573 12.0624 7.38809 12.1269 7.30605 12.1818C7.33073 12.1598 7.28572 12.1749 7.2506 12.2101L7.18905 12.263C7.15725 12.2964 7.12933 12.3414 7.11244 12.3922C7.09227 12.453 7.08205 12.5146 7.08205 12.5764V13.8365L7.07879 13.8999C7.07459 13.9367 7.06663 13.9626 7.05666 13.9776C7.0569 13.9751 7.05226 13.9771 7.04719 13.9794C7.04432 13.9806 7.04132 13.982 7.03899 13.9825L6.99964 13.9905C6.98896 13.9905 6.97727 13.9876 6.95588 13.9755L6.94306 13.9505L6.94091 12.5883L6.93159 12.5021L6.88137 12.3577C6.86048 12.3138 6.8276 12.2701 6.78526 12.2361L6.68947 12.1507L6.61579 12.1101C6.59619 12.0994 6.57486 12.0929 6.55259 12.0901C6.56322 12.0889 6.56623 12.0841 6.56456 12.077L6.49433 11.9741L6.45348 11.8995C6.3601 11.7383 6.35106 11.5931 6.41987 11.4424C6.49605 11.2755 6.60086 11.1533 6.73533 11.0723C6.77179 11.0481 6.80466 11.0354 6.84051 11.0303ZM6.52602 12.0885C6.53499 12.0885 6.54386 12.089 6.55259 12.0901C6.54646 12.0908 6.53779 12.0904 6.52602 12.0885Z" fill="#495867"/>
</svg>
