<svg width="22" height="16" viewBox="0 0 22 16" fill="none" xmlns="http://www.w3.org/2000/svg">
<path fill-rule="evenodd" clip-rule="evenodd" d="M21.6663 0.666687H0.333008V15.3334H21.6663V0.666687ZM1.36721 1.70526L20.557 1.77529V1.92493V14.1424V14.2921L1.36721 14.2207V1.70526ZM2.32354 11.8418H4.77255V12.7263H2.32354V11.8418ZM19.7233 11.8418H17.2729V12.7263H19.7233V11.8418ZM10.5615 4.06846H11.4364L11.4372 4.5131V4.65825L11.7355 4.71743C12.1046 4.85278 12.4144 5.08847 12.6237 5.39631L12.702 5.52315L12.7782 5.67746C12.8464 5.83539 12.8905 6.00352 12.9084 6.17582L12.9154 6.2664L12.9182 6.37621H11.8818L11.8735 6.29832C11.8424 5.88654 11.4372 5.80002 11.4372 5.80002L11.4372 7.10207L11.5445 7.13914L11.6043 7.15555L11.8047 7.22368C12.5872 7.53191 13.1305 8.26058 13.1843 9.10432L13.1887 9.24547L13.1794 9.44559C13.099 10.3043 12.5064 11.0436 11.6673 11.3119L11.6378 11.3203L11.5457 11.3465L11.4372 11.3674L11.4364 11.9286H10.5615L10.5618 11.3674L10.4536 11.3469L10.3965 11.3316L10.2022 11.2664C9.44267 10.9712 8.90099 10.2712 8.82089 9.45221L8.81484 9.37714L8.81013 9.20928H9.84364L9.85604 9.4057C9.89615 10.0204 10.5618 10.2898 10.5618 10.2898V8.07485L10.2092 7.9074C9.61436 7.62897 9.21916 7.08899 9.17091 6.47212L9.16587 6.34061L9.17714 6.14911C9.25171 5.5179 9.69076 4.96557 10.3294 4.71825L10.5618 4.67261V4.52993L10.5615 4.06846ZM12.1452 9.09656L12.1553 9.2475L12.1536 9.30601C12.1379 9.94561 11.4372 10.2449 11.4372 10.2449V8.29867C11.4372 8.29867 12.1048 8.59867 12.1452 9.09656ZM10.1356 6.33436C10.1679 6.03883 10.4043 5.74775 10.6095 5.76717V6.91031C10.4043 6.92393 10.1034 6.62989 10.1356 6.33436ZM4.77255 2.91906H2.32354V3.80205H4.77255V2.91906ZM17.2729 2.91906H19.7233V3.80205H17.2729V2.91906Z" fill="#495867"/>
</svg>
