<svg width="14" height="16" viewBox="0 0 14 16" fill="none" xmlns="http://www.w3.org/2000/svg">
<path fill-rule="evenodd" clip-rule="evenodd" d="M6.99993 0C4.59993 0 2.59993 2 2.59993 4.4C2.59993 6.8 4.59993 8.8 6.99993 8.8C9.39993 8.8 11.3999 6.8 11.3999 4.4C11.3999 2 9.39993 0 6.99993 0ZM9.92951 9.46655L4.07446 9.46655L3.85762 9.47254L3.62184 9.49361C1.93019 9.69735 0.577055 11.0077 0.363126 12.6152L0.34109 12.8362L0.333511 13.0578L0.332031 16H1.53203L1.53356 13.0564L1.54167 12.8616L1.56682 12.6517C1.74238 11.575 2.59256 10.7351 3.66739 10.5647L3.87145 10.5407L4.07695 10.5331L9.94444 10.5336L10.1312 10.542L10.3379 10.5689C11.3996 10.7581 12.2637 11.6843 12.4358 12.7992L12.4598 13.0103L12.4669 13.2098L12.4654 16H13.6667L13.6668 13.0745L13.6608 12.8581L13.6408 12.6336C13.441 10.9612 12.1258 9.69345 10.4135 9.49421L10.1777 9.47373L9.92951 9.46655ZM10.3334 4.4C10.3334 2.53333 8.86674 1.06667 7.00007 1.06667C5.1334 1.06667 3.66674 2.53333 3.66674 4.4C3.66674 6.26667 5.1334 7.73333 7.00007 7.73333C8.86674 7.73333 10.3334 6.26667 10.3334 4.4Z" fill="#495867"/>
</svg>
